# xmcd
#
# Track frame offsets:
#   150
#   13385
#   23812
#   37037
#   48651
#   60766
#   72711
#   88073
#   114862
#   128613
#   144421
#   159116
#   171230
#   193202
#   211074
#   228539
#
# Disc length: 3338 seconds
#
# Revision: 0
# Processed by: cddbd v1.5.2PL0 Copyright (c) Steve Scherf et al.
# Submitted via: uFREEDB ActiveX Control 1.5
#
DISCID=db0d0810
DTITLE=swing shows - swing shows
DYEAR=1900
DGENRE=Alternative
TTITLE0=swing shows
TTITLE1=swing shows
TTITLE2=swing shows
TTITLE3=swing shows
TTITLE4=swing shows
TTITLE5=swing shows
TTITLE6=swing shows
TTITLE7=swing shows
TTITLE8=swing shows
TTITLE9=swing shows
TTITLE10=swing shows1
TTITLE11=swing shows2
TTITLE12=swing shows3
TTITLE13=swing shows4
TTITLE14=swing shows5
TTITLE15=swing shows6
EXTD=
EXTT0=
EXTT1=
EXTT2=
EXTT3=
EXTT4=
EXTT5=
EXTT6=
EXTT7=
EXTT8=
EXTT9=
EXTT10=
EXTT11=
EXTT12=
EXTT13=
EXTT14=
EXTT15=
PLAYORDER=
